<mxfile host="app.diagrams.net" modified="2023-05-20T13:43:26.506Z" agent="Mozilla/5.0 (Macintosh; Intel Mac OS X 10_15_7) AppleWebKit/537.36 (KHTML, like Gecko) Chrome/113.0.0.0 Safari/537.36" etag="fT_lPmnZ4XgL50Fx8BSR" version="21.3.0" type="github">
  <diagram name="Page-1" id="gMe-Bky1Bsc7BJImx75z">
    <mxGraphModel dx="954" dy="502" grid="1" gridSize="10" guides="1" tooltips="1" connect="1" arrows="1" fold="1" page="1" pageScale="1" pageWidth="850" pageHeight="1100" math="0" shadow="0">
      <root>
        <mxCell id="0" />
        <mxCell id="1" parent="0" />
        <mxCell id="FChrIHquZ6spdRlbcfap-18" value="" style="rounded=1;whiteSpace=wrap;html=1;dashed=1;dashPattern=8 8;" vertex="1" parent="1">
          <mxGeometry x="260" y="440" width="340" height="400" as="geometry" />
        </mxCell>
        <mxCell id="3aQrNkbQbUIohng2VoPE-54" value="" style="rounded=1;whiteSpace=wrap;html=1;dashed=1;dashPattern=8 8;" parent="1" vertex="1">
          <mxGeometry x="590" y="20" width="240" height="340" as="geometry" />
        </mxCell>
        <mxCell id="3aQrNkbQbUIohng2VoPE-53" value="" style="rounded=1;whiteSpace=wrap;html=1;dashed=1;dashPattern=8 8;" parent="1" vertex="1">
          <mxGeometry x="200" y="20" width="190" height="340" as="geometry" />
        </mxCell>
        <mxCell id="3aQrNkbQbUIohng2VoPE-3" value="" style="outlineConnect=0;dashed=0;verticalLabelPosition=bottom;verticalAlign=top;align=center;html=1;shape=mxgraph.aws3.mobile_client;fillColor=#D2D3D3;gradientColor=none;" parent="1" vertex="1">
          <mxGeometry x="439.75" y="175" width="40.5" height="50" as="geometry" />
        </mxCell>
        <mxCell id="3aQrNkbQbUIohng2VoPE-5" value="" style="endArrow=classic;html=1;rounded=0;exitX=0;exitY=0.5;exitDx=0;exitDy=0;dashed=1;" parent="1" edge="1">
          <mxGeometry width="50" height="50" relative="1" as="geometry">
            <mxPoint x="679.75" y="115" as="sourcePoint" />
            <mxPoint x="649.75" y="170" as="targetPoint" />
            <Array as="points">
              <mxPoint x="649.75" y="115" />
            </Array>
          </mxGeometry>
        </mxCell>
        <mxCell id="3aQrNkbQbUIohng2VoPE-6" value="" style="endArrow=classic;html=1;rounded=0;exitX=1;exitY=0.5;exitDx=0;exitDy=0;dashed=1;" parent="1" edge="1">
          <mxGeometry width="50" height="50" relative="1" as="geometry">
            <mxPoint x="739.75" y="115" as="sourcePoint" />
            <mxPoint x="759.75" y="260" as="targetPoint" />
            <Array as="points">
              <mxPoint x="759.75" y="115" />
            </Array>
          </mxGeometry>
        </mxCell>
        <mxCell id="3aQrNkbQbUIohng2VoPE-7" value="Single Leader System" style="text;html=1;strokeColor=none;fillColor=none;align=center;verticalAlign=middle;whiteSpace=wrap;rounded=0;" parent="1" vertex="1">
          <mxGeometry x="659.75" y="370" width="130" height="30" as="geometry" />
        </mxCell>
        <mxCell id="3aQrNkbQbUIohng2VoPE-14" value="" style="outlineConnect=0;dashed=0;verticalLabelPosition=bottom;verticalAlign=top;align=center;html=1;shape=mxgraph.aws3.mobile_client;fillColor=#D2D3D3;gradientColor=none;" parent="1" vertex="1">
          <mxGeometry x="439.75" y="270" width="40.5" height="50" as="geometry" />
        </mxCell>
        <mxCell id="3aQrNkbQbUIohng2VoPE-15" value="" style="outlineConnect=0;dashed=0;verticalLabelPosition=bottom;verticalAlign=top;align=center;html=1;shape=mxgraph.aws3.mobile_client;fillColor=#D2D3D3;gradientColor=none;" parent="1" vertex="1">
          <mxGeometry x="439.75" y="45" width="40.5" height="50" as="geometry" />
        </mxCell>
        <mxCell id="3aQrNkbQbUIohng2VoPE-16" value="Client #1" style="text;html=1;strokeColor=none;fillColor=none;align=center;verticalAlign=middle;whiteSpace=wrap;rounded=0;" parent="1" vertex="1">
          <mxGeometry x="430" y="90" width="60" height="30" as="geometry" />
        </mxCell>
        <mxCell id="3aQrNkbQbUIohng2VoPE-17" value="Client #2" style="text;html=1;strokeColor=none;fillColor=none;align=center;verticalAlign=middle;whiteSpace=wrap;rounded=0;" parent="1" vertex="1">
          <mxGeometry x="430" y="220" width="60" height="30" as="geometry" />
        </mxCell>
        <mxCell id="3aQrNkbQbUIohng2VoPE-18" value="Client #3" style="text;html=1;strokeColor=none;fillColor=none;align=center;verticalAlign=middle;whiteSpace=wrap;rounded=0;" parent="1" vertex="1">
          <mxGeometry x="430" y="320" width="60" height="30" as="geometry" />
        </mxCell>
        <mxCell id="3aQrNkbQbUIohng2VoPE-21" value="Replication" style="text;html=1;strokeColor=none;fillColor=none;align=center;verticalAlign=middle;whiteSpace=wrap;rounded=0;" parent="1" vertex="1">
          <mxGeometry x="759.75" y="175" width="60" height="30" as="geometry" />
        </mxCell>
        <mxCell id="3aQrNkbQbUIohng2VoPE-22" value="Replication" style="text;html=1;strokeColor=none;fillColor=none;align=center;verticalAlign=middle;whiteSpace=wrap;rounded=0;" parent="1" vertex="1">
          <mxGeometry x="649.75" y="130" width="60" height="30" as="geometry" />
        </mxCell>
        <mxCell id="3aQrNkbQbUIohng2VoPE-23" value="" style="endArrow=classic;html=1;rounded=0;exitX=1;exitY=0.5;exitDx=0;exitDy=0;exitPerimeter=0;" parent="1" source="3aQrNkbQbUIohng2VoPE-15" edge="1">
          <mxGeometry width="50" height="50" relative="1" as="geometry">
            <mxPoint x="809.75" y="280" as="sourcePoint" />
            <mxPoint x="674.75" y="70" as="targetPoint" />
          </mxGeometry>
        </mxCell>
        <mxCell id="3aQrNkbQbUIohng2VoPE-24" value="" style="endArrow=classic;html=1;rounded=0;exitX=1;exitY=0.5;exitDx=0;exitDy=0;exitPerimeter=0;" parent="1" source="3aQrNkbQbUIohng2VoPE-3" edge="1">
          <mxGeometry width="50" height="50" relative="1" as="geometry">
            <mxPoint x="809.75" y="280" as="sourcePoint" />
            <mxPoint x="619.75" y="200" as="targetPoint" />
          </mxGeometry>
        </mxCell>
        <mxCell id="3aQrNkbQbUIohng2VoPE-25" value="" style="endArrow=classic;html=1;rounded=0;exitX=1;exitY=0.5;exitDx=0;exitDy=0;exitPerimeter=0;" parent="1" source="3aQrNkbQbUIohng2VoPE-14" edge="1">
          <mxGeometry width="50" height="50" relative="1" as="geometry">
            <mxPoint x="809.75" y="280" as="sourcePoint" />
            <mxPoint x="729.75" y="290.5366726296959" as="targetPoint" />
          </mxGeometry>
        </mxCell>
        <mxCell id="3aQrNkbQbUIohng2VoPE-26" value="Read/Write" style="text;html=1;strokeColor=none;fillColor=none;align=center;verticalAlign=middle;whiteSpace=wrap;rounded=0;" parent="1" vertex="1">
          <mxGeometry x="539.75" y="45" width="60" height="30" as="geometry" />
        </mxCell>
        <mxCell id="3aQrNkbQbUIohng2VoPE-27" value="Read" style="text;html=1;strokeColor=none;fillColor=none;align=center;verticalAlign=middle;whiteSpace=wrap;rounded=0;" parent="1" vertex="1">
          <mxGeometry x="519.75" y="170" width="60" height="30" as="geometry" />
        </mxCell>
        <mxCell id="3aQrNkbQbUIohng2VoPE-28" value="Read" style="text;html=1;strokeColor=none;fillColor=none;align=center;verticalAlign=middle;whiteSpace=wrap;rounded=0;" parent="1" vertex="1">
          <mxGeometry x="539.75" y="270" width="60" height="30" as="geometry" />
        </mxCell>
        <mxCell id="3aQrNkbQbUIohng2VoPE-34" value="Multi Leader System" style="text;html=1;strokeColor=none;fillColor=none;align=center;verticalAlign=middle;whiteSpace=wrap;rounded=0;" parent="1" vertex="1">
          <mxGeometry x="229.75" y="370" width="130" height="30" as="geometry" />
        </mxCell>
        <mxCell id="3aQrNkbQbUIohng2VoPE-51" style="edgeStyle=orthogonalEdgeStyle;rounded=0;orthogonalLoop=1;jettySize=auto;html=1;exitX=0.5;exitY=1;exitDx=0;exitDy=0;dashed=1;" parent="1" source="Gfc4CHRtMW86bTHhbxlJ-2" edge="1">
          <mxGeometry relative="1" as="geometry">
            <mxPoint x="295" y="270" as="targetPoint" />
            <mxPoint x="294.79999999999995" y="100" as="sourcePoint" />
          </mxGeometry>
        </mxCell>
        <mxCell id="3aQrNkbQbUIohng2VoPE-36" value="" style="outlineConnect=0;dashed=0;verticalLabelPosition=bottom;verticalAlign=top;align=center;html=1;shape=mxgraph.aws3.mobile_client;fillColor=#D2D3D3;gradientColor=none;" parent="1" vertex="1">
          <mxGeometry x="29.75" y="270" width="40.5" height="50" as="geometry" />
        </mxCell>
        <mxCell id="3aQrNkbQbUIohng2VoPE-37" value="" style="outlineConnect=0;dashed=0;verticalLabelPosition=bottom;verticalAlign=top;align=center;html=1;shape=mxgraph.aws3.mobile_client;fillColor=#D2D3D3;gradientColor=none;" parent="1" vertex="1">
          <mxGeometry x="29.75" y="45" width="40.5" height="50" as="geometry" />
        </mxCell>
        <mxCell id="3aQrNkbQbUIohng2VoPE-38" value="Client #1" style="text;html=1;strokeColor=none;fillColor=none;align=center;verticalAlign=middle;whiteSpace=wrap;rounded=0;" parent="1" vertex="1">
          <mxGeometry x="20" y="90" width="60" height="30" as="geometry" />
        </mxCell>
        <mxCell id="3aQrNkbQbUIohng2VoPE-40" value="Client #2" style="text;html=1;strokeColor=none;fillColor=none;align=center;verticalAlign=middle;whiteSpace=wrap;rounded=0;" parent="1" vertex="1">
          <mxGeometry x="20" y="320" width="60" height="30" as="geometry" />
        </mxCell>
        <mxCell id="3aQrNkbQbUIohng2VoPE-41" value="Replication" style="text;html=1;strokeColor=none;fillColor=none;align=center;verticalAlign=middle;whiteSpace=wrap;rounded=0;" parent="1" vertex="1">
          <mxGeometry x="230" y="185" width="60" height="30" as="geometry" />
        </mxCell>
        <mxCell id="3aQrNkbQbUIohng2VoPE-43" value="" style="endArrow=classic;html=1;rounded=0;exitX=1;exitY=0.5;exitDx=0;exitDy=0;exitPerimeter=0;" parent="1" source="3aQrNkbQbUIohng2VoPE-37" edge="1">
          <mxGeometry width="50" height="50" relative="1" as="geometry">
            <mxPoint x="399.75" y="280" as="sourcePoint" />
            <mxPoint x="264.75" y="70" as="targetPoint" />
          </mxGeometry>
        </mxCell>
        <mxCell id="3aQrNkbQbUIohng2VoPE-45" value="" style="endArrow=classic;html=1;rounded=0;exitX=1;exitY=0.5;exitDx=0;exitDy=0;exitPerimeter=0;" parent="1" source="3aQrNkbQbUIohng2VoPE-36" edge="1">
          <mxGeometry width="50" height="50" relative="1" as="geometry">
            <mxPoint x="399.75" y="280" as="sourcePoint" />
            <mxPoint x="264.75" y="295" as="targetPoint" />
          </mxGeometry>
        </mxCell>
        <mxCell id="3aQrNkbQbUIohng2VoPE-46" value="Read/Write" style="text;html=1;strokeColor=none;fillColor=none;align=center;verticalAlign=middle;whiteSpace=wrap;rounded=0;" parent="1" vertex="1">
          <mxGeometry x="129.75" y="45" width="60" height="30" as="geometry" />
        </mxCell>
        <mxCell id="3aQrNkbQbUIohng2VoPE-52" value="Read/Write" style="text;html=1;strokeColor=none;fillColor=none;align=center;verticalAlign=middle;whiteSpace=wrap;rounded=0;" parent="1" vertex="1">
          <mxGeometry x="120" y="265" width="60" height="30" as="geometry" />
        </mxCell>
        <mxCell id="Gfc4CHRtMW86bTHhbxlJ-1" value="" style="shape=cylinder3;whiteSpace=wrap;html=1;boundedLbl=1;backgroundOutline=1;size=15;" parent="1" vertex="1">
          <mxGeometry x="277.25" y="35" width="35" height="60" as="geometry" />
        </mxCell>
        <mxCell id="Gfc4CHRtMW86bTHhbxlJ-2" value="Leader #1" style="text;html=1;strokeColor=none;fillColor=none;align=center;verticalAlign=middle;whiteSpace=wrap;rounded=0;" parent="1" vertex="1">
          <mxGeometry x="265" y="90" width="60" height="30" as="geometry" />
        </mxCell>
        <mxCell id="Gfc4CHRtMW86bTHhbxlJ-6" value="" style="group" parent="1" vertex="1" connectable="0">
          <mxGeometry x="265" y="275" width="60" height="85" as="geometry" />
        </mxCell>
        <mxCell id="Gfc4CHRtMW86bTHhbxlJ-4" value="" style="shape=cylinder3;whiteSpace=wrap;html=1;boundedLbl=1;backgroundOutline=1;size=15;" parent="Gfc4CHRtMW86bTHhbxlJ-6" vertex="1">
          <mxGeometry x="12.25" width="35" height="60" as="geometry" />
        </mxCell>
        <mxCell id="Gfc4CHRtMW86bTHhbxlJ-5" value="Leader #2" style="text;html=1;strokeColor=none;fillColor=none;align=center;verticalAlign=middle;whiteSpace=wrap;rounded=0;" parent="Gfc4CHRtMW86bTHhbxlJ-6" vertex="1">
          <mxGeometry y="55" width="60" height="30" as="geometry" />
        </mxCell>
        <mxCell id="Gfc4CHRtMW86bTHhbxlJ-7" value="" style="group" parent="1" vertex="1" connectable="0">
          <mxGeometry x="680" y="50" width="60" height="85" as="geometry" />
        </mxCell>
        <mxCell id="Gfc4CHRtMW86bTHhbxlJ-8" value="" style="shape=cylinder3;whiteSpace=wrap;html=1;boundedLbl=1;backgroundOutline=1;size=15;" parent="Gfc4CHRtMW86bTHhbxlJ-7" vertex="1">
          <mxGeometry x="12.25" width="35" height="60" as="geometry" />
        </mxCell>
        <mxCell id="Gfc4CHRtMW86bTHhbxlJ-9" value="Leader" style="text;html=1;strokeColor=none;fillColor=none;align=center;verticalAlign=middle;whiteSpace=wrap;rounded=0;" parent="Gfc4CHRtMW86bTHhbxlJ-7" vertex="1">
          <mxGeometry y="55" width="60" height="30" as="geometry" />
        </mxCell>
        <mxCell id="Gfc4CHRtMW86bTHhbxlJ-10" value="" style="group" parent="1" vertex="1" connectable="0">
          <mxGeometry x="620" y="180" width="70" height="85" as="geometry" />
        </mxCell>
        <mxCell id="Gfc4CHRtMW86bTHhbxlJ-11" value="" style="shape=cylinder3;whiteSpace=wrap;html=1;boundedLbl=1;backgroundOutline=1;size=15;" parent="Gfc4CHRtMW86bTHhbxlJ-10" vertex="1">
          <mxGeometry x="12.25" width="35" height="60" as="geometry" />
        </mxCell>
        <mxCell id="Gfc4CHRtMW86bTHhbxlJ-12" value="Follower #1" style="text;html=1;strokeColor=none;fillColor=none;align=center;verticalAlign=middle;whiteSpace=wrap;rounded=0;" parent="Gfc4CHRtMW86bTHhbxlJ-10" vertex="1">
          <mxGeometry y="55" width="70" height="30" as="geometry" />
        </mxCell>
        <mxCell id="Gfc4CHRtMW86bTHhbxlJ-13" value="" style="group" parent="1" vertex="1" connectable="0">
          <mxGeometry x="730" y="260" width="70" height="85" as="geometry" />
        </mxCell>
        <mxCell id="Gfc4CHRtMW86bTHhbxlJ-14" value="" style="shape=cylinder3;whiteSpace=wrap;html=1;boundedLbl=1;backgroundOutline=1;size=15;" parent="Gfc4CHRtMW86bTHhbxlJ-13" vertex="1">
          <mxGeometry x="12.25" width="35" height="60" as="geometry" />
        </mxCell>
        <mxCell id="Gfc4CHRtMW86bTHhbxlJ-15" value="Follower #2" style="text;html=1;strokeColor=none;fillColor=none;align=center;verticalAlign=middle;whiteSpace=wrap;rounded=0;" parent="Gfc4CHRtMW86bTHhbxlJ-13" vertex="1">
          <mxGeometry y="55" width="70" height="30" as="geometry" />
        </mxCell>
        <mxCell id="FChrIHquZ6spdRlbcfap-1" value="" style="shape=cylinder3;whiteSpace=wrap;html=1;boundedLbl=1;backgroundOutline=1;size=15;" vertex="1" parent="1">
          <mxGeometry x="400" y="460" width="60" height="80" as="geometry" />
        </mxCell>
        <mxCell id="FChrIHquZ6spdRlbcfap-2" value="" style="shape=cylinder3;whiteSpace=wrap;html=1;boundedLbl=1;backgroundOutline=1;size=15;" vertex="1" parent="1">
          <mxGeometry x="510" y="570" width="60" height="80" as="geometry" />
        </mxCell>
        <mxCell id="FChrIHquZ6spdRlbcfap-3" value="" style="shape=cylinder3;whiteSpace=wrap;html=1;boundedLbl=1;backgroundOutline=1;size=15;" vertex="1" parent="1">
          <mxGeometry x="500" y="710" width="60" height="80" as="geometry" />
        </mxCell>
        <mxCell id="FChrIHquZ6spdRlbcfap-4" value="" style="shape=cylinder3;whiteSpace=wrap;html=1;boundedLbl=1;backgroundOutline=1;size=15;" vertex="1" parent="1">
          <mxGeometry x="299.75" y="710" width="60" height="80" as="geometry" />
        </mxCell>
        <mxCell id="FChrIHquZ6spdRlbcfap-5" value="" style="shape=cylinder3;whiteSpace=wrap;html=1;boundedLbl=1;backgroundOutline=1;size=15;" vertex="1" parent="1">
          <mxGeometry x="290" y="570" width="60" height="80" as="geometry" />
        </mxCell>
        <mxCell id="FChrIHquZ6spdRlbcfap-8" value="" style="endArrow=classic;startArrow=classic;html=1;rounded=0;entryX=0;entryY=0.5;entryDx=0;entryDy=0;entryPerimeter=0;exitX=0.5;exitY=0;exitDx=0;exitDy=0;exitPerimeter=0;dashed=1;" edge="1" parent="1" source="FChrIHquZ6spdRlbcfap-5" target="FChrIHquZ6spdRlbcfap-1">
          <mxGeometry width="50" height="50" relative="1" as="geometry">
            <mxPoint x="310" y="570" as="sourcePoint" />
            <mxPoint x="360" y="520" as="targetPoint" />
          </mxGeometry>
        </mxCell>
        <mxCell id="FChrIHquZ6spdRlbcfap-9" value="" style="endArrow=classic;startArrow=classic;html=1;rounded=0;entryX=1;entryY=0.5;entryDx=0;entryDy=0;entryPerimeter=0;exitX=0.5;exitY=0;exitDx=0;exitDy=0;exitPerimeter=0;dashed=1;" edge="1" parent="1" source="FChrIHquZ6spdRlbcfap-2" target="FChrIHquZ6spdRlbcfap-1">
          <mxGeometry width="50" height="50" relative="1" as="geometry">
            <mxPoint x="330" y="580" as="sourcePoint" />
            <mxPoint x="410" y="510" as="targetPoint" />
          </mxGeometry>
        </mxCell>
        <mxCell id="FChrIHquZ6spdRlbcfap-10" value="" style="endArrow=classic;startArrow=classic;html=1;rounded=0;entryX=0.5;entryY=1;entryDx=0;entryDy=0;entryPerimeter=0;exitX=0.5;exitY=0;exitDx=0;exitDy=0;exitPerimeter=0;dashed=1;" edge="1" parent="1" source="FChrIHquZ6spdRlbcfap-3" target="FChrIHquZ6spdRlbcfap-2">
          <mxGeometry width="50" height="50" relative="1" as="geometry">
            <mxPoint x="550" y="580" as="sourcePoint" />
            <mxPoint x="470" y="510" as="targetPoint" />
          </mxGeometry>
        </mxCell>
        <mxCell id="FChrIHquZ6spdRlbcfap-11" value="" style="endArrow=classic;startArrow=classic;html=1;rounded=0;entryX=1;entryY=0.5;entryDx=0;entryDy=0;entryPerimeter=0;exitX=0;exitY=0.5;exitDx=0;exitDy=0;exitPerimeter=0;dashed=1;" edge="1" parent="1" source="FChrIHquZ6spdRlbcfap-3" target="FChrIHquZ6spdRlbcfap-4">
          <mxGeometry width="50" height="50" relative="1" as="geometry">
            <mxPoint x="560" y="590" as="sourcePoint" />
            <mxPoint x="480" y="520" as="targetPoint" />
          </mxGeometry>
        </mxCell>
        <mxCell id="FChrIHquZ6spdRlbcfap-12" value="" style="endArrow=classic;startArrow=classic;html=1;rounded=0;entryX=0.5;entryY=1;entryDx=0;entryDy=0;entryPerimeter=0;dashed=1;" edge="1" parent="1" source="FChrIHquZ6spdRlbcfap-4" target="FChrIHquZ6spdRlbcfap-5">
          <mxGeometry width="50" height="50" relative="1" as="geometry">
            <mxPoint x="510" y="760" as="sourcePoint" />
            <mxPoint x="370" y="760" as="targetPoint" />
          </mxGeometry>
        </mxCell>
        <mxCell id="FChrIHquZ6spdRlbcfap-13" value="Node #1" style="text;html=1;strokeColor=none;fillColor=none;align=center;verticalAlign=middle;whiteSpace=wrap;rounded=0;" vertex="1" parent="1">
          <mxGeometry x="400" y="540" width="60" height="30" as="geometry" />
        </mxCell>
        <mxCell id="FChrIHquZ6spdRlbcfap-14" value="Node #3" style="text;html=1;strokeColor=none;fillColor=none;align=center;verticalAlign=middle;whiteSpace=wrap;rounded=0;" vertex="1" parent="1">
          <mxGeometry x="539.75" y="650" width="60" height="30" as="geometry" />
        </mxCell>
        <mxCell id="FChrIHquZ6spdRlbcfap-15" value="Node #5" style="text;html=1;strokeColor=none;fillColor=none;align=center;verticalAlign=middle;whiteSpace=wrap;rounded=0;" vertex="1" parent="1">
          <mxGeometry x="500" y="790" width="60" height="30" as="geometry" />
        </mxCell>
        <mxCell id="FChrIHquZ6spdRlbcfap-16" value="Node #4" style="text;html=1;strokeColor=none;fillColor=none;align=center;verticalAlign=middle;whiteSpace=wrap;rounded=0;" vertex="1" parent="1">
          <mxGeometry x="299.75" y="790" width="60" height="30" as="geometry" />
        </mxCell>
        <mxCell id="FChrIHquZ6spdRlbcfap-17" value="Node #2" style="text;html=1;strokeColor=none;fillColor=none;align=center;verticalAlign=middle;whiteSpace=wrap;rounded=0;" vertex="1" parent="1">
          <mxGeometry x="265" y="650" width="60" height="30" as="geometry" />
        </mxCell>
        <mxCell id="FChrIHquZ6spdRlbcfap-19" value="" style="endArrow=classic;startArrow=classic;html=1;rounded=0;exitX=1;exitY=0.5;exitDx=0;exitDy=0;exitPerimeter=0;entryX=0;entryY=0.5;entryDx=0;entryDy=0;entryPerimeter=0;dashed=1;" edge="1" parent="1" source="FChrIHquZ6spdRlbcfap-5" target="FChrIHquZ6spdRlbcfap-2">
          <mxGeometry width="50" height="50" relative="1" as="geometry">
            <mxPoint x="370" y="640" as="sourcePoint" />
            <mxPoint x="420" y="590" as="targetPoint" />
          </mxGeometry>
        </mxCell>
        <mxCell id="FChrIHquZ6spdRlbcfap-20" value="" style="endArrow=classic;startArrow=classic;html=1;rounded=0;exitX=1;exitY=0.5;exitDx=0;exitDy=0;exitPerimeter=0;entryX=0;entryY=0.5;entryDx=0;entryDy=0;entryPerimeter=0;dashed=1;" edge="1" parent="1" source="FChrIHquZ6spdRlbcfap-4" target="FChrIHquZ6spdRlbcfap-2">
          <mxGeometry width="50" height="50" relative="1" as="geometry">
            <mxPoint x="390" y="730" as="sourcePoint" />
            <mxPoint x="500" y="610" as="targetPoint" />
          </mxGeometry>
        </mxCell>
        <mxCell id="FChrIHquZ6spdRlbcfap-21" value="" style="endArrow=classic;startArrow=classic;html=1;rounded=0;exitX=1;exitY=0.5;exitDx=0;exitDy=0;exitPerimeter=0;entryX=0;entryY=0.5;entryDx=0;entryDy=0;entryPerimeter=0;dashed=1;" edge="1" parent="1" source="FChrIHquZ6spdRlbcfap-5" target="FChrIHquZ6spdRlbcfap-3">
          <mxGeometry width="50" height="50" relative="1" as="geometry">
            <mxPoint x="400" y="740" as="sourcePoint" />
            <mxPoint x="450" y="690" as="targetPoint" />
          </mxGeometry>
        </mxCell>
        <mxCell id="FChrIHquZ6spdRlbcfap-22" value="" style="endArrow=classic;startArrow=classic;html=1;rounded=0;entryX=0.5;entryY=0;entryDx=0;entryDy=0;dashed=1;" edge="1" parent="1" target="FChrIHquZ6spdRlbcfap-13">
          <mxGeometry width="50" height="50" relative="1" as="geometry">
            <mxPoint x="360" y="750" as="sourcePoint" />
            <mxPoint x="410" y="680" as="targetPoint" />
          </mxGeometry>
        </mxCell>
        <mxCell id="FChrIHquZ6spdRlbcfap-23" value="" style="endArrow=classic;startArrow=classic;html=1;rounded=0;entryX=0.5;entryY=0;entryDx=0;entryDy=0;exitX=0;exitY=0.5;exitDx=0;exitDy=0;exitPerimeter=0;dashed=1;" edge="1" parent="1" source="FChrIHquZ6spdRlbcfap-3" target="FChrIHquZ6spdRlbcfap-13">
          <mxGeometry width="50" height="50" relative="1" as="geometry">
            <mxPoint x="400" y="740" as="sourcePoint" />
            <mxPoint x="450" y="690" as="targetPoint" />
          </mxGeometry>
        </mxCell>
        <mxCell id="FChrIHquZ6spdRlbcfap-24" value="" style="outlineConnect=0;dashed=0;verticalLabelPosition=bottom;verticalAlign=top;align=center;html=1;shape=mxgraph.aws3.mobile_client;fillColor=#D2D3D3;gradientColor=none;" vertex="1" parent="1">
          <mxGeometry x="110" y="468.5" width="40.5" height="63" as="geometry" />
        </mxCell>
        <mxCell id="FChrIHquZ6spdRlbcfap-25" value="" style="outlineConnect=0;dashed=0;verticalLabelPosition=bottom;verticalAlign=top;align=center;html=1;shape=mxgraph.aws3.mobile_client;fillColor=#D2D3D3;gradientColor=none;" vertex="1" parent="1">
          <mxGeometry x="110" y="592" width="40.5" height="63" as="geometry" />
        </mxCell>
        <mxCell id="FChrIHquZ6spdRlbcfap-26" value="" style="outlineConnect=0;dashed=0;verticalLabelPosition=bottom;verticalAlign=top;align=center;html=1;shape=mxgraph.aws3.mobile_client;fillColor=#D2D3D3;gradientColor=none;" vertex="1" parent="1">
          <mxGeometry x="110" y="718.5" width="40.5" height="63" as="geometry" />
        </mxCell>
        <mxCell id="FChrIHquZ6spdRlbcfap-27" value="" style="outlineConnect=0;dashed=0;verticalLabelPosition=bottom;verticalAlign=top;align=center;html=1;shape=mxgraph.aws3.mobile_client;fillColor=#D2D3D3;gradientColor=none;" vertex="1" parent="1">
          <mxGeometry x="704.5" y="578.5" width="40.5" height="63" as="geometry" />
        </mxCell>
        <mxCell id="FChrIHquZ6spdRlbcfap-28" value="" style="outlineConnect=0;dashed=0;verticalLabelPosition=bottom;verticalAlign=top;align=center;html=1;shape=mxgraph.aws3.mobile_client;fillColor=#D2D3D3;gradientColor=none;" vertex="1" parent="1">
          <mxGeometry x="704.5" y="718.5" width="40.5" height="63" as="geometry" />
        </mxCell>
        <mxCell id="FChrIHquZ6spdRlbcfap-29" value="" style="endArrow=classic;html=1;rounded=0;exitX=1;exitY=0.5;exitDx=0;exitDy=0;exitPerimeter=0;" edge="1" parent="1" source="FChrIHquZ6spdRlbcfap-24">
          <mxGeometry width="50" height="50" relative="1" as="geometry">
            <mxPoint x="400" y="560" as="sourcePoint" />
            <mxPoint x="390" y="500" as="targetPoint" />
          </mxGeometry>
        </mxCell>
        <mxCell id="FChrIHquZ6spdRlbcfap-30" value="Replication" style="text;html=1;strokeColor=none;fillColor=none;align=center;verticalAlign=middle;whiteSpace=wrap;rounded=0;" vertex="1" parent="1">
          <mxGeometry x="400" y="625" width="60" height="30" as="geometry" />
        </mxCell>
        <mxCell id="FChrIHquZ6spdRlbcfap-31" value="" style="endArrow=classic;html=1;rounded=0;exitX=1;exitY=0.5;exitDx=0;exitDy=0;exitPerimeter=0;entryX=0;entryY=0;entryDx=0;entryDy=52.5;entryPerimeter=0;" edge="1" parent="1" source="FChrIHquZ6spdRlbcfap-25" target="FChrIHquZ6spdRlbcfap-5">
          <mxGeometry width="50" height="50" relative="1" as="geometry">
            <mxPoint x="400" y="590" as="sourcePoint" />
            <mxPoint x="450" y="540" as="targetPoint" />
          </mxGeometry>
        </mxCell>
        <mxCell id="FChrIHquZ6spdRlbcfap-32" value="" style="endArrow=classic;html=1;rounded=0;exitX=1;exitY=0.5;exitDx=0;exitDy=0;exitPerimeter=0;entryX=0;entryY=0.5;entryDx=0;entryDy=0;entryPerimeter=0;" edge="1" parent="1" source="FChrIHquZ6spdRlbcfap-26" target="FChrIHquZ6spdRlbcfap-4">
          <mxGeometry width="50" height="50" relative="1" as="geometry">
            <mxPoint x="400" y="650" as="sourcePoint" />
            <mxPoint x="450" y="600" as="targetPoint" />
          </mxGeometry>
        </mxCell>
        <mxCell id="FChrIHquZ6spdRlbcfap-34" value="" style="endArrow=classic;html=1;rounded=0;exitX=0;exitY=0.5;exitDx=0;exitDy=0;exitPerimeter=0;entryX=1;entryY=0.5;entryDx=0;entryDy=0;entryPerimeter=0;" edge="1" parent="1" source="FChrIHquZ6spdRlbcfap-28" target="FChrIHquZ6spdRlbcfap-3">
          <mxGeometry width="50" height="50" relative="1" as="geometry">
            <mxPoint x="400" y="650" as="sourcePoint" />
            <mxPoint x="450" y="600" as="targetPoint" />
          </mxGeometry>
        </mxCell>
        <mxCell id="FChrIHquZ6spdRlbcfap-35" value="" style="endArrow=classic;html=1;rounded=0;entryX=1;entryY=0.5;entryDx=0;entryDy=0;entryPerimeter=0;" edge="1" parent="1" source="FChrIHquZ6spdRlbcfap-27" target="FChrIHquZ6spdRlbcfap-2">
          <mxGeometry width="50" height="50" relative="1" as="geometry">
            <mxPoint x="400" y="650" as="sourcePoint" />
            <mxPoint x="450" y="600" as="targetPoint" />
          </mxGeometry>
        </mxCell>
        <mxCell id="FChrIHquZ6spdRlbcfap-36" value="Read/Write" style="text;html=1;strokeColor=none;fillColor=none;align=center;verticalAlign=middle;whiteSpace=wrap;rounded=0;" vertex="1" parent="1">
          <mxGeometry x="169.75" y="468.5" width="60" height="30" as="geometry" />
        </mxCell>
        <mxCell id="FChrIHquZ6spdRlbcfap-37" value="Read/Write" style="text;html=1;strokeColor=none;fillColor=none;align=center;verticalAlign=middle;whiteSpace=wrap;rounded=0;" vertex="1" parent="1">
          <mxGeometry x="170" y="592" width="60" height="30" as="geometry" />
        </mxCell>
        <mxCell id="FChrIHquZ6spdRlbcfap-39" value="Read/Write" style="text;html=1;strokeColor=none;fillColor=none;align=center;verticalAlign=middle;whiteSpace=wrap;rounded=0;" vertex="1" parent="1">
          <mxGeometry x="170" y="718.5" width="60" height="30" as="geometry" />
        </mxCell>
        <mxCell id="FChrIHquZ6spdRlbcfap-40" value="Read/Write" style="text;html=1;strokeColor=none;fillColor=none;align=center;verticalAlign=middle;whiteSpace=wrap;rounded=0;" vertex="1" parent="1">
          <mxGeometry x="625" y="578.5" width="60" height="30" as="geometry" />
        </mxCell>
        <mxCell id="FChrIHquZ6spdRlbcfap-41" value="Read/Write" style="text;html=1;strokeColor=none;fillColor=none;align=center;verticalAlign=middle;whiteSpace=wrap;rounded=0;" vertex="1" parent="1">
          <mxGeometry x="620" y="718.5" width="60" height="30" as="geometry" />
        </mxCell>
        <mxCell id="FChrIHquZ6spdRlbcfap-42" value="Leaderless System" style="text;html=1;strokeColor=none;fillColor=none;align=center;verticalAlign=middle;whiteSpace=wrap;rounded=0;" vertex="1" parent="1">
          <mxGeometry x="360" y="850" width="130" height="30" as="geometry" />
        </mxCell>
      </root>
    </mxGraphModel>
  </diagram>
</mxfile>
